<svg width="24" height="24" viewBox="0 0 24 24" fill="none" xmlns="http://www.w3.org/2000/svg">
<path d="M16 11.5H12.5V8C12.5 7.72388 12.2761 7.5 12 7.5C11.7239 7.5 11.5 7.72388 11.5 8V11.5H8C7.72388 11.5 7.5 11.7239 7.5 12C7.5 12.2761 7.72388 12.5 8 12.5H11.5V16.0005C11.5002 16.2766 11.724 16.5002 12 16.5C12.2759 16.4998 12.5002 16.276 12.5 16V12.5H16C16.2761 12.5 16.5 12.2761 16.5 12C16.5 11.7239 16.2761 11.5 16 11.5ZM12 2C6.47717 2 2 6.47717 2 12C2 17.5228 6.47717 22 12 22C17.5202 21.9937 21.9937 17.5202 22 12C22 6.47717 17.5228 2 12 2ZM12 21C7.02942 21 3 16.9706 3 12C3 7.02942 7.02942 3 12 3C16.9683 3.00562 20.9944 7.03174 21 12C21 16.9706 16.9706 21 12 21Z" fill="black"/>
</svg>
