<svg width="24" height="24" viewBox="0 0 24 24" fill="none" xmlns="http://www.w3.org/2000/svg">
<path d="M19.9386 5H11.64C10.9285 5.00038 10.2251 5.1536 9.57502 5.44977C8.92498 5.74594 8.34284 6.17847 7.86621 6.71941L3.91242 11.2039C3.32383 11.8726 2.99868 12.7413 3 13.6415V15.8854C3 16.378 3 17.4141 3 17.9131C3 18.2013 3.11183 18.4778 3.31087 18.6816C3.50992 18.8855 3.77989 19 4.06138 19H19.9386C20.2201 19 20.4901 18.8855 20.6891 18.6816C20.8882 18.4778 21 18.2013 21 17.9131C21 17.4077 21 16.3812 21 15.8854V6.07106C20.9959 5.78554 20.8823 5.51314 20.6837 5.31272C20.4851 5.1123 20.2174 4.99997 19.9386 5ZM4.37483 11.6297L8.32862 7.1294C8.74801 6.65728 9.25938 6.28042 9.82973 6.02314C10.4001 5.76585 11.0168 5.63385 11.64 5.63564H19.9386C20.0529 5.63557 20.1627 5.68093 20.2449 5.76216C20.3271 5.84339 20.3753 5.95414 20.3793 6.07106V15.5675H3.62069V13.6415C3.61982 12.8984 3.88859 12.1814 4.37483 11.6297ZM20.3793 16.4415H3.62069V16.1905H20.3793V16.4415ZM19.9386 18.3485H4.06138C3.94714 18.3485 3.83734 18.3032 3.75513 18.222C3.67292 18.1407 3.62472 18.03 3.62069 17.9131V17.0772H20.3793V17.9003C20.381 17.9607 20.3708 18.0207 20.3494 18.077C20.328 18.1332 20.2958 18.1844 20.2547 18.2277C20.2136 18.271 20.1645 18.3054 20.1102 18.3288C20.0559 18.3523 19.9976 18.3644 19.9386 18.3644V18.3485Z" fill="black"/>
<path d="M18.7903 12.99H16.3076C16.0985 12.99 15.898 13.0751 15.7502 13.2265C15.6023 13.3779 15.5193 13.5832 15.5193 13.7973C15.5193 14.0114 15.6023 14.2167 15.7502 14.3681C15.898 14.5195 16.0985 14.6046 16.3076 14.6046H18.7903C18.9994 14.6046 19.1999 14.5195 19.3477 14.3681C19.4955 14.2167 19.5786 14.0114 19.5786 13.7973C19.5786 13.5832 19.4955 13.3779 19.3477 13.2265C19.1999 13.0751 18.9994 12.99 18.7903 12.99ZM18.7903 13.9689H16.3076C16.2631 13.9689 16.2205 13.9508 16.1891 13.9187C16.1576 13.8865 16.14 13.8428 16.14 13.7973C16.14 13.7518 16.1576 13.7081 16.1891 13.6759C16.2205 13.6438 16.2631 13.6257 16.3076 13.6257H18.7903C18.8348 13.6257 18.8774 13.6438 18.9088 13.6759C18.9403 13.7081 18.9579 13.7518 18.9579 13.7973C18.9579 13.8428 18.9403 13.8865 18.9088 13.9187C18.8774 13.9508 18.8348 13.9689 18.7903 13.9689ZM6.99412 12.7104C7.54343 12.7104 18.9051 12.7104 19.7586 12.7104C19.8409 12.7104 19.9198 12.6769 19.978 12.6173C20.0362 12.5577 20.0689 12.4768 20.0689 12.3925V6.27131C20.0689 6.18702 20.0362 6.10618 19.978 6.04658C19.9198 5.98698 19.8409 5.95349 19.7586 5.95349H11.64C11.0594 5.95385 10.4853 6.07908 9.955 6.32107C9.42466 6.56306 8.94987 6.91642 8.56136 7.35826L6.25549 9.98028C6.23404 10.012 6.21435 10.0448 6.19653 10.0788C6.19653 10.1169 6.19653 10.1551 6.1748 10.1932V11.884C6.17886 12.1041 6.26687 12.3138 6.41999 12.4682C6.57312 12.6227 6.7792 12.7096 6.99412 12.7104ZM6.99412 12.0747C6.94061 12.0747 6.88931 12.053 6.85147 12.0142C6.81364 11.9755 6.79239 11.9229 6.79239 11.8681V10.4634H9.55136L9.29998 11.3723C9.24354 11.5741 9.12468 11.7516 8.96126 11.8783C8.79785 12.005 8.59871 12.0739 8.39377 12.0747H6.99412ZM9.02067 7.76825C9.35266 7.3953 9.75725 7.0977 10.2084 6.89461C10.6595 6.69153 11.1472 6.58747 11.64 6.58913H19.4483V12.0747H9.63825C9.90515 11.776 10.0634 10.8829 10.1876 10.5047C10.209 10.4254 10.2127 10.3421 10.1981 10.2612C10.1836 10.1803 10.1514 10.1038 10.1038 10.0375C10.0551 9.97186 9.9922 9.91875 9.92002 9.88234C9.84783 9.84593 9.76837 9.82723 9.68791 9.82773H7.20515L9.02067 7.76825Z" fill="black"/>
<path d="M13.7565 9.55441C13.8379 9.55406 13.916 9.52096 13.9738 9.46224L15.0351 8.3753C15.0642 8.34575 15.0873 8.3106 15.1031 8.27187C15.1188 8.23314 15.1269 8.1916 15.1269 8.14964C15.1269 8.10769 15.1188 8.06615 15.1031 8.02742C15.0873 7.98869 15.0642 7.95354 15.0351 7.92399C14.977 7.8648 14.8983 7.83157 14.8163 7.83157C14.7344 7.83157 14.6557 7.8648 14.5976 7.92399L13.5517 9.01094C13.5088 9.05443 13.4792 9.10979 13.4665 9.17025C13.4538 9.23071 13.4587 9.29364 13.4804 9.35133C13.5022 9.40902 13.5399 9.45896 13.5889 9.49503C13.6379 9.5311 13.6962 9.55174 13.7565 9.55441ZM15.8607 9.2207L14.7931 10.3076C14.735 10.3675 14.7026 10.4485 14.7029 10.5328C14.7032 10.6172 14.7362 10.6979 14.7946 10.7574C14.8531 10.8168 14.9322 10.85 15.0145 10.8497C15.0969 10.8494 15.1757 10.8156 15.2338 10.7558L16.292 9.66883C16.3373 9.60795 16.3596 9.5324 16.3548 9.45604C16.3501 9.37968 16.3186 9.30764 16.2661 9.25316C16.2137 9.19867 16.1438 9.16539 16.0693 9.15942C15.9948 9.15346 15.9207 9.17522 15.8607 9.2207ZM13.6603 10.9306C13.7417 10.9302 13.8197 10.8971 13.8776 10.8384L16.3976 8.2577C16.4484 8.1969 16.475 8.1187 16.4719 8.03871C16.4689 7.95872 16.4365 7.88284 16.3813 7.82624C16.326 7.76964 16.2519 7.73648 16.1738 7.73339C16.0957 7.7303 16.0193 7.75751 15.96 7.80958L13.44 10.403C13.4012 10.4481 13.3757 10.5034 13.3665 10.5627C13.3572 10.622 13.3645 10.6828 13.3876 10.738C13.4106 10.7932 13.4485 10.8406 13.4967 10.8747C13.545 10.9088 13.6017 10.9281 13.6603 10.9306Z" fill="black"/>
</svg>
