<svg width="24" height="24" viewBox="0 0 24 24" fill="none" xmlns="http://www.w3.org/2000/svg">
<path d="M12 2C6.47717 2 2 6.47717 2 12C2 17.5228 6.47717 22 12 22C17.5202 21.9937 21.9937 17.5202 22 12C22 6.47717 17.5228 2 12 2ZM12 21C7.02942 21 3 16.9706 3 12C3 7.02942 7.02942 3 12 3C16.9683 3.00562 20.9944 7.03174 21 12C21 16.9706 16.9706 21 12 21Z" fill="black"/>
<path d="M16.7194 7.27979C16.5944 7.15427 16.4368 7.06619 16.2643 7.02546C16.0919 6.98474 15.9115 6.99299 15.7435 7.0493L9.67524 9.07262C9.53488 9.11952 9.40734 9.19841 9.30269 9.30306C9.19805 9.4077 9.11916 9.53524 9.07226 9.6756L7.04903 15.7445C6.99296 15.9126 6.9848 16.0929 7.02548 16.2653C7.06615 16.4377 7.15405 16.5954 7.27931 16.7207C7.40458 16.8459 7.56226 16.9338 7.73467 16.9745C7.90709 17.0152 8.08743 17.007 8.25547 16.951L14.3242 14.9279C14.4646 14.8812 14.5922 14.8024 14.6968 14.6977C14.8014 14.5931 14.8801 14.4654 14.9267 14.325L16.9491 8.25602C17.0052 8.08803 17.0135 7.90771 16.973 7.73528C16.9324 7.56285 16.8446 7.40513 16.7194 7.27979ZM14 14L10 10L16 8L14 14Z" fill="black"/>
</svg>
