<svg width="18" height="18" viewBox="0 0 18 18" fill="none" xmlns="http://www.w3.org/2000/svg">
<g clip-path="url(#clip0_313_685)">
<path d="M9.00011 4.40639C8.59996 4.40639 8.20879 4.28773 7.87608 4.06542C7.54336 3.8431 7.28405 3.52712 7.13091 3.15743C6.97778 2.78774 6.93772 2.38094 7.01578 1.98848C7.09385 1.59602 7.28654 1.23552 7.56949 0.952568C7.85244 0.669618 8.21294 0.476927 8.6054 0.398861C8.99786 0.320796 9.40466 0.360862 9.77435 0.513993C10.144 0.667124 10.46 0.926443 10.6823 1.25916C10.9046 1.59187 11.0233 1.98303 11.0233 2.38319C11.0233 2.91977 10.8101 3.43438 10.4307 3.8138C10.0513 4.19323 9.53669 4.40639 9.00011 4.40639ZM9.00011 1.43999C8.81783 1.43999 8.63965 1.49404 8.48809 1.5953C8.33654 1.69657 8.21841 1.8405 8.14866 2.00891C8.07891 2.17731 8.06066 2.36261 8.09622 2.54138C8.13178 2.72015 8.21955 2.88437 8.34844 3.01326C8.47733 3.14214 8.64154 3.22992 8.82031 3.26548C8.99909 3.30104 9.18439 3.28279 9.35279 3.21303C9.52119 3.14328 9.66512 3.02516 9.76639 2.8736C9.86766 2.72204 9.92171 2.54386 9.92171 2.36159C9.92171 2.11716 9.82461 1.88275 9.65178 1.70992C9.47894 1.53708 9.24453 1.43999 9.00011 1.43999ZM2.38331 4.40639C1.98316 4.40639 1.59199 4.28773 1.25928 4.06542C0.926565 3.8431 0.667246 3.52712 0.514115 3.15743C0.360984 2.78774 0.320918 2.38094 0.398984 1.98848C0.477049 1.59602 0.66974 1.23552 0.95269 0.952568C1.23564 0.669618 1.59614 0.476927 1.9886 0.398861C2.38106 0.320796 2.78786 0.360862 3.15755 0.513993C3.52724 0.667124 3.84323 0.926443 4.06554 1.25916C4.28785 1.59187 4.40651 1.98303 4.40651 2.38319C4.40651 2.91977 4.19335 3.43438 3.81393 3.8138C3.4345 4.19323 2.91989 4.40639 2.38331 4.40639ZM2.38331 1.43999C2.13888 1.43999 1.90447 1.53708 1.73164 1.70992C1.55881 1.88275 1.46171 2.11716 1.46171 2.36159C1.46171 2.60601 1.55881 2.84042 1.73164 3.01326C1.90447 3.18609 2.13888 3.28319 2.38331 3.28319C2.62773 3.28319 2.86214 3.18609 3.03498 3.01326C3.20781 2.84042 3.30491 2.60601 3.30491 2.36159C3.30491 2.11716 3.20781 1.88275 3.03498 1.70992C2.86214 1.53708 2.62773 1.43999 2.38331 1.43999ZM15.6169 4.40639C15.2168 4.40639 14.8256 4.28773 14.4929 4.06542C14.1602 3.8431 13.9008 3.52712 13.7477 3.15743C13.5946 2.78774 13.5545 2.38094 13.6326 1.98848C13.7106 1.59602 13.9033 1.23552 14.1863 0.952568C14.4692 0.669618 14.8297 0.476927 15.2222 0.398861C15.6147 0.320796 16.0215 0.360862 16.3912 0.513993C16.7608 0.667124 17.0768 0.926443 17.2991 1.25916C17.5215 1.59187 17.6401 1.98303 17.6401 2.38319C17.6401 2.91977 17.427 3.43438 17.0475 3.8138C16.6681 4.19323 16.1535 4.40639 15.6169 4.40639ZM15.6169 1.46159C15.4356 1.46584 15.2596 1.52348 15.1109 1.62729C14.9622 1.73111 14.8475 1.87648 14.781 2.04522C14.7146 2.21395 14.6994 2.39853 14.7373 2.57586C14.7753 2.75318 14.8647 2.91537 14.9944 3.04211C15.1241 3.16884 15.2884 3.2545 15.4665 3.28834C15.6447 3.32219 15.8289 3.30272 15.996 3.23237C16.1631 3.16203 16.3058 3.04394 16.4062 2.89288C16.5065 2.74183 16.5601 2.56453 16.5601 2.38319C16.5631 2.25852 16.5407 2.13454 16.4943 2.01877C16.448 1.903 16.3786 1.79784 16.2904 1.70966C16.2023 1.62148 16.0971 1.55211 15.9813 1.50576C15.8656 1.4594 15.7416 1.43703 15.6169 1.43999V1.46159ZM9.00011 17.64C8.59996 17.64 8.20879 17.5213 7.87608 17.299C7.54336 17.0767 7.28405 16.7607 7.13091 16.391C6.97778 16.0213 6.93772 15.6145 7.01578 15.2221C7.09385 14.8296 7.28654 14.4691 7.56949 14.1862C7.85244 13.9032 8.21294 13.7105 8.6054 13.6325C8.99786 13.5544 9.40466 13.5945 9.77435 13.7476C10.144 13.9007 10.46 14.16 10.6823 14.4928C10.9046 14.8255 11.0233 15.2166 11.0233 15.6168C11.0233 16.1534 10.8101 16.668 10.4307 17.0474C10.0513 17.4268 9.53669 17.64 9.00011 17.64ZM9.00011 14.6952C8.81783 14.6952 8.63965 14.7492 8.48809 14.8505C8.33654 14.9518 8.21841 15.0957 8.14866 15.2641C8.07891 15.4325 8.06066 15.6178 8.09622 15.7966C8.13178 15.9754 8.21955 16.1396 8.34844 16.2685C8.47733 16.3973 8.64154 16.4851 8.82031 16.5207C8.99909 16.5562 9.18439 16.538 9.35279 16.4682C9.52119 16.3985 9.66512 16.2804 9.76639 16.1288C9.86766 15.9772 9.92171 15.7991 9.92171 15.6168C9.91982 15.3729 9.82212 15.1396 9.6497 14.9672C9.47727 14.7948 9.24395 14.6971 9.00011 14.6952ZM2.38331 17.64C1.98316 17.64 1.59199 17.5213 1.25928 17.299C0.926565 17.0767 0.667246 16.7607 0.514115 16.391C0.360984 16.0213 0.320918 15.6145 0.398984 15.2221C0.477049 14.8296 0.66974 14.4691 0.95269 14.1862C1.23564 13.9032 1.59614 13.7105 1.9886 13.6325C2.38106 13.5544 2.78786 13.5945 3.15755 13.7476C3.52724 13.9007 3.84323 14.16 4.06554 14.4928C4.28785 14.8255 4.40651 15.2166 4.40651 15.6168C4.40651 16.1534 4.19335 16.668 3.81393 17.0474C3.4345 17.4268 2.91989 17.64 2.38331 17.64ZM2.38331 14.6952C2.20103 14.6952 2.02285 14.7492 1.87129 14.8505C1.71974 14.9518 1.60161 15.0957 1.53186 15.2641C1.46211 15.4325 1.44386 15.6178 1.47942 15.7966C1.51498 15.9754 1.60275 16.1396 1.73164 16.2685C1.86053 16.3973 2.02474 16.4851 2.20351 16.5207C2.38229 16.5562 2.56759 16.538 2.73599 16.4682C2.90439 16.3985 3.04832 16.2804 3.14959 16.1288C3.25086 15.9772 3.30491 15.7991 3.30491 15.6168C3.30491 15.4958 3.28107 15.3759 3.23476 15.2641C3.18844 15.1523 3.12056 15.0507 3.03498 14.9651C2.9494 14.8795 2.8478 14.8117 2.73599 14.7653C2.62418 14.719 2.50433 14.6952 2.38331 14.6952Z" fill="#999999"/>
<path d="M9.00006 14.6952C8.85426 14.6952 8.71433 14.6378 8.61056 14.5354C8.5068 14.433 8.44755 14.2938 8.44566 14.148V3.85201C8.44566 3.70497 8.50407 3.56396 8.60804 3.45999C8.71201 3.35602 8.85302 3.29761 9.00006 3.29761C9.14709 3.29761 9.28811 3.35602 9.39208 3.45999C9.49605 3.56396 9.55446 3.70497 9.55446 3.85201V14.148C9.55256 14.2938 9.49332 14.433 9.38955 14.5354C9.28579 14.6378 9.14585 14.6952 9.00006 14.6952ZM2.38326 14.6952C2.23746 14.6952 2.09753 14.6378 1.99376 14.5354C1.89 14.433 1.83075 14.2938 1.82886 14.148V3.85201C1.83075 3.70622 1.89 3.56705 1.99376 3.46463C2.09753 3.36222 2.23746 3.3048 2.38326 3.30481C2.52838 3.30481 2.66757 3.36246 2.77019 3.46508C2.87281 3.5677 2.93046 3.70688 2.93046 3.85201V14.148C2.93046 14.2199 2.9163 14.291 2.8888 14.3574C2.8613 14.4238 2.821 14.4841 2.77019 14.5349C2.71937 14.5857 2.65905 14.6261 2.59266 14.6536C2.52627 14.6811 2.45512 14.6952 2.38326 14.6952Z" fill="#999999"/>
<path d="M14.1481 9.55441H2.38326C2.23622 9.55441 2.09521 9.496 1.99124 9.39203C1.88727 9.28806 1.82886 9.14705 1.82886 9.00001C1.82886 8.85297 1.88727 8.71196 1.99124 8.60799C2.09521 8.50402 2.23622 8.44561 2.38326 8.44561H14.1481C14.3912 8.44562 14.6246 8.34951 14.7972 8.17823C14.9698 8.00695 15.0678 7.77438 15.0697 7.53121V3.85201C15.0697 3.78015 15.0838 3.70899 15.1113 3.64261C15.1388 3.57622 15.1791 3.51589 15.2299 3.46508C15.2807 3.41427 15.3411 3.37396 15.4075 3.34646C15.4738 3.31896 15.545 3.30481 15.6169 3.30481C15.7627 3.3048 15.9026 3.36222 16.0064 3.46464C16.1101 3.56705 16.1694 3.70622 16.1713 3.85201V7.53121C16.1713 8.0678 15.9581 8.5824 15.5787 8.96183C15.1993 9.34125 14.6846 9.55441 14.1481 9.55441ZM17.0857 17.64C17.0132 17.64 16.9414 17.6256 16.8746 17.5977C16.8077 17.5697 16.7471 17.5288 16.6962 17.4772C16.6453 17.4256 16.6051 17.3644 16.578 17.2972C16.551 17.23 16.5375 17.1581 16.5385 17.0856V16.3656C16.5385 16.2449 16.5146 16.1254 16.4682 16.014C16.4218 15.9026 16.3538 15.8015 16.2681 15.7165C16.1824 15.6315 16.0808 15.5643 15.969 15.5187C15.8572 15.4732 15.7375 15.4503 15.6169 15.4512H14.6953V17.1C14.6962 17.1725 14.6828 17.2444 14.6557 17.3116C14.6286 17.3788 14.5885 17.44 14.5376 17.4916C14.4866 17.5432 14.426 17.5841 14.3591 17.6121C14.2923 17.64 14.2205 17.6544 14.1481 17.6544C14.001 17.6544 13.86 17.596 13.756 17.492C13.6521 17.3881 13.5937 17.247 13.5937 17.1V14.8824C13.5955 14.736 13.6545 14.596 13.7581 14.4925C13.8617 14.3889 14.0016 14.3299 14.1481 14.328H15.5881C16.1246 14.328 16.6393 14.5412 17.0187 14.9206C17.3981 15.3 17.6113 15.8146 17.6113 16.3512V17.0712C17.6141 17.1431 17.6028 17.2148 17.578 17.2823C17.5531 17.3498 17.5152 17.4118 17.4664 17.4646C17.4176 17.5174 17.3588 17.5601 17.2935 17.5902C17.2282 17.6203 17.1575 17.6372 17.0857 17.64Z" fill="#999999"/>
<path d="M15.6167 15.4368H14.1767C14.0303 15.4349 13.8903 15.3759 13.7868 15.2723C13.6832 15.1688 13.6242 15.0288 13.6223 14.8824V11.9448C13.6223 11.7977 13.6807 11.6567 13.7847 11.5528C13.8887 11.4488 14.0297 11.3904 14.1767 11.3904H15.6167C16.1533 11.3904 16.6679 11.6035 17.0473 11.983C17.4268 12.3624 17.6399 12.877 17.6399 13.4136C17.6399 13.9502 17.4268 14.4648 17.0473 14.8442C16.6679 15.2236 16.1533 15.4368 15.6167 15.4368ZM14.6951 14.328H15.6167C15.7441 14.3393 15.8724 14.3239 15.9936 14.2829C16.1147 14.2419 16.226 14.1762 16.3203 14.0898C16.4147 14.0035 16.49 13.8984 16.5415 13.7814C16.5931 13.6644 16.6197 13.5379 16.6197 13.41C16.6197 13.2821 16.5931 13.1556 16.5415 13.0386C16.49 12.9215 16.4147 12.8165 16.3203 12.7301C16.226 12.6438 16.1147 12.578 15.9936 12.537C15.8724 12.496 15.7441 12.4807 15.6167 12.492H14.6951V14.328Z" fill="#999999"/>
</g>
<defs>
<clipPath id="clip0_313_685">
<rect width="18" height="18" fill="white"/>
</clipPath>
</defs>
</svg>
