<svg width="24" height="24" viewBox="0 0 24 24" fill="none" xmlns="http://www.w3.org/2000/svg">
<path d="M14.644 20.2162H5.20898C4.36391 20.2152 3.55373 19.8791 2.95618 19.2815C2.35862 18.684 2.02248 17.8738 2.02148 17.0287V4.88623C2.02248 4.04116 2.35862 3.23098 2.95618 2.63342C3.55373 2.03587 4.36391 1.69972 5.20898 1.69873H16.459C17.3041 1.69972 18.1142 2.03587 18.7118 2.63342C19.3093 3.23098 19.6455 4.04116 19.6465 4.88623V14.865C19.6465 15.0142 19.5872 15.1572 19.4817 15.2627C19.3762 15.3682 19.2332 15.4275 19.084 15.4275C18.9348 15.4275 18.7917 15.3682 18.6862 15.2627C18.5807 15.1572 18.5215 15.0142 18.5215 14.865V4.88623C18.5208 4.33943 18.3033 3.81523 17.9166 3.42859C17.53 3.04195 17.0058 2.82443 16.459 2.82373H5.20898C4.66219 2.82443 4.13799 3.04195 3.75134 3.42859C3.3647 3.81523 3.14718 4.33943 3.14648 4.88623V17.0287C3.14718 17.5755 3.3647 18.0997 3.75134 18.4864C4.13799 18.873 4.66219 19.0905 5.20898 19.0912H14.644C14.7932 19.0912 14.9362 19.1505 15.0417 19.256C15.1472 19.3615 15.2065 19.5045 15.2065 19.6537C15.2065 19.8029 15.1472 19.946 15.0417 20.0515C14.9362 20.157 14.7932 20.2162 14.644 20.2162Z" fill="black"/>
<path d="M15.5102 6.57227H6.15771C6.00853 6.57227 5.86546 6.513 5.75997 6.40751C5.65448 6.30202 5.59521 6.15895 5.59521 6.00977C5.59521 5.86058 5.65448 5.71751 5.75997 5.61202C5.86546 5.50653 6.00853 5.44727 6.15771 5.44727H15.5102C15.6594 5.44727 15.8025 5.50653 15.908 5.61202C16.0135 5.71751 16.0727 5.86058 16.0727 6.00977C16.0727 6.15895 16.0135 6.30202 15.908 6.40751C15.8025 6.513 15.6594 6.57227 15.5102 6.57227ZM15.5102 9.87077H6.15771C6.00853 9.87077 5.86546 9.8115 5.75997 9.70601C5.65448 9.60052 5.59521 9.45745 5.59521 9.30827C5.59521 9.15908 5.65448 9.01601 5.75997 8.91052C5.86546 8.80503 6.00853 8.74577 6.15771 8.74577H15.5102C15.6594 8.74577 15.8025 8.80503 15.908 8.91052C16.0135 9.01601 16.0727 9.15908 16.0727 9.30827C16.0727 9.45745 16.0135 9.60052 15.908 9.70601C15.8025 9.8115 15.6594 9.87077 15.5102 9.87077ZM15.5102 13.1689H6.15771C6.00853 13.1689 5.86546 13.1096 5.75997 13.0041C5.65448 12.8986 5.59521 12.7556 5.59521 12.6064C5.59521 12.4572 5.65448 12.3141 5.75997 12.2086C5.86546 12.1032 6.00853 12.0439 6.15771 12.0439H15.5102C15.6594 12.0439 15.8025 12.1032 15.908 12.2086C16.0135 12.3141 16.0727 12.4572 16.0727 12.6064C16.0727 12.7556 16.0135 12.8986 15.908 13.0041C15.8025 13.1096 15.6594 13.1689 15.5102 13.1689ZM12.8897 16.467H6.15809C6.00891 16.467 5.86583 16.4078 5.76034 16.3023C5.65485 16.1968 5.59559 16.0537 5.59559 15.9045C5.59559 15.7553 5.65485 15.6123 5.76034 15.5068C5.86583 15.4013 6.00891 15.342 6.15809 15.342H12.8897C13.0389 15.342 13.182 15.4013 13.2875 15.5068C13.393 15.6123 13.4522 15.7553 13.4522 15.9045C13.4522 16.0537 13.393 16.1968 13.2875 16.3023C13.182 16.4078 13.0389 16.467 12.8897 16.467ZM17.8735 22.3016C17.0615 22.3016 16.2677 22.0609 15.5926 21.6097C14.9174 21.1586 14.3912 20.5174 14.0805 19.7672C13.7697 19.0171 13.6884 18.1916 13.8469 17.3952C14.0053 16.5988 14.3963 15.8673 14.9704 15.2931C15.5446 14.7189 16.2761 14.3279 17.0725 14.1695C17.8689 14.0111 18.6944 14.0924 19.4446 14.4032C20.1948 14.7139 20.8359 15.2401 21.2871 15.9152C21.7382 16.5904 21.979 17.3841 21.979 18.1961C21.9777 19.2846 21.5447 20.328 20.775 21.0976C20.0054 21.8672 18.9619 22.3005 17.8735 22.3016ZM17.8735 15.2156C17.2839 15.2156 16.7076 15.3903 16.2174 15.7178C15.7272 16.0453 15.3452 16.5107 15.1195 17.0554C14.8939 17.6 14.8348 18.1993 14.9498 18.7775C15.0648 19.3557 15.3487 19.8868 15.7656 20.3037C16.1824 20.7205 16.7135 21.0044 17.2917 21.1194C17.8699 21.2344 18.4692 21.1753 19.0139 20.9497C19.5585 20.7241 20.024 20.342 20.3514 19.8518C20.6789 19.3616 20.8537 18.7853 20.8536 18.1958C20.8526 17.4057 20.5383 16.6483 19.9796 16.0896C19.421 15.5309 18.6635 15.2166 17.8735 15.2156Z" fill="black"/>
<path d="M19.3052 18.7586H17.873C17.7239 18.7586 17.5808 18.6994 17.4753 18.5939C17.3698 18.4884 17.3105 18.3453 17.3105 18.1961V16.5499C17.3105 16.4007 17.3698 16.2576 17.4753 16.1521C17.5808 16.0466 17.7239 15.9874 17.873 15.9874C18.0222 15.9874 18.1653 16.0466 18.2708 16.1521C18.3763 16.2576 18.4355 16.4007 18.4355 16.5499V17.6336H19.3055C19.4547 17.6336 19.5978 17.6929 19.7033 17.7984C19.8088 17.9039 19.868 18.0469 19.868 18.1961C19.868 18.3453 19.8088 18.4884 19.7033 18.5939C19.5978 18.6994 19.4544 18.7586 19.3052 18.7586Z" fill="black"/>
</svg>
