<svg width="24" height="24" viewBox="0 0 24 24" fill="none" xmlns="http://www.w3.org/2000/svg">
<g clip-path="url(#clip0_588_3729)">
<g clip-path="url(#clip1_588_3729)">
<path d="M23.7453 6.47267C23.7089 6.36358 23.6726 6.29085 23.5999 6.25449L22.9089 5.81813L23.0908 5.52722C23.5635 4.76358 23.3817 3.7454 22.618 3.27267L22.2544 3.01813C21.4908 2.5454 20.4726 2.76358 19.9998 3.49085C17.1271 7.92722 17.3089 7.59994 17.2726 7.7454V4.07267C17.2726 3.52722 16.8362 3.12722 16.3271 3.12722H12.8362V2.32722C12.8362 2.10904 12.6544 1.96358 12.4726 1.96358H10.4726V1.85449C10.4726 0.909035 9.70894 0.181763 8.79985 0.181763C7.89076 0.181763 7.12712 0.945399 7.12712 1.85449V1.92722H5.12712C4.90894 1.92722 4.76349 2.07267 4.76349 2.29085V3.09085H1.19985C0.654395 3.09085 0.254395 3.52722 0.254395 4.03631V22.7999C0.254395 23.3454 0.690758 23.7454 1.19985 23.7454H16.2908C16.8362 23.7454 17.2362 23.309 17.2362 22.7999V14.2545L20.1453 9.81813C20.2544 9.81813 20.3635 9.7454 20.4362 9.67267L22.5453 6.43631L22.9089 6.69085L21.1635 9.38176C21.0544 9.56358 21.0908 9.78176 21.2726 9.89085C21.4544 9.99994 21.6726 9.96358 21.7817 9.78176L23.7453 6.79994C23.7453 6.65449 23.7817 6.58176 23.7453 6.47267ZM15.3089 3.85449H16.2908C16.4362 3.85449 16.5089 3.96358 16.5089 4.07267V9.09085L15.2726 10.9818V3.85449H15.3089ZM5.41803 2.69085H7.41803C7.59985 2.69085 7.78167 2.5454 7.78167 2.32722V1.85449C7.78167 1.30904 8.21803 0.909035 8.72712 0.909035C9.27258 0.909035 9.67258 1.3454 9.67258 1.85449V2.29085C9.67258 2.50904 9.81803 2.65449 10.0362 2.65449H12.0362V4.25449H5.41803V2.69085ZM16.5453 22.8727C16.5453 23.0181 16.4362 23.0909 16.3271 23.0909H1.19985C1.05439 23.0909 0.981667 22.9818 0.981667 22.8727V4.07267C0.981667 3.92722 1.09076 3.85449 1.19985 3.85449H2.18167V21.8545C2.18167 22.0727 2.32712 22.2181 2.5453 22.2181H11.1998C11.2362 22.2181 11.3089 22.2181 11.3453 22.1818C11.3817 22.1454 11.418 22.1454 11.4544 22.109L15.1635 18.3999C15.2726 18.2909 15.3089 18.1454 15.2362 17.9999C15.1635 17.8545 15.0544 17.7818 14.9089 17.7818H11.1998C10.9817 17.7818 10.8362 17.9636 10.8362 18.1454V21.4909H2.90894V3.85449H4.69076V4.65449C4.69076 4.87267 4.83621 5.01813 5.05439 5.01813H12.3998C12.5817 5.01813 12.7635 4.87267 12.7635 4.65449V3.85449H14.5453V12.109L14.3271 12.4363C14.218 12.5818 14.2544 12.7636 14.3635 12.8727L12.1453 16.2545C12.0362 16.4363 12.0726 16.6545 12.2544 16.7636L12.7271 17.0909C12.8726 17.1999 13.0908 17.1636 13.2362 17.0181C14.3271 15.5636 15.6362 16.3999 16.4726 14.8727V22.8727H16.5453ZM11.5635 20.9818V18.509H14.0362L11.5635 20.9818ZM14.9817 13.309L16.0726 13.9999C15.7453 15.5636 14.618 14.8727 13.1998 16.0363L14.9817 13.309ZM16.7999 13.5999L15.1635 12.509L17.8544 8.39995L19.4908 9.45449L16.7999 13.5999ZM22.5089 5.12722L19.9998 8.9454C19.9635 8.90904 18.0362 7.67267 18.1089 7.70904L20.5817 3.89085C20.8726 3.45449 21.418 3.3454 21.818 3.63631L22.1817 3.89085C22.6544 4.1454 22.7635 4.69085 22.5089 5.12722Z" fill="black"/>
<path d="M7.56361 6.18176H4.29088C4.0727 6.18176 3.92725 6.32722 3.92725 6.5454V9.81813C3.92725 10.0363 4.0727 10.1818 4.29088 10.1818H7.56361C7.78179 10.1818 7.92725 10.0363 7.92725 9.81813V6.5454C7.92725 6.32722 7.74543 6.18176 7.56361 6.18176ZM7.19997 9.41813H4.65452V6.87267H7.19997V9.41813ZM7.56361 11.3818H4.29088C4.0727 11.3818 3.92725 11.5272 3.92725 11.7454V15.0181C3.92725 15.2363 4.0727 15.3818 4.29088 15.3818H7.56361C7.78179 15.3818 7.92725 15.2363 7.92725 15.0181V11.7454C7.92725 11.5272 7.74543 11.3818 7.56361 11.3818ZM7.19997 14.6181H4.65452V12.0727H7.19997V14.6181ZM7.56361 16.5818H4.29088C4.0727 16.5818 3.92725 16.7272 3.92725 16.9454V20.2181C3.92725 20.4363 4.0727 20.5818 4.29088 20.5818H7.56361C7.78179 20.5818 7.92725 20.4363 7.92725 20.2181V16.9454C7.92725 16.7272 7.74543 16.5818 7.56361 16.5818ZM7.19997 19.8181H4.65452V17.2727H7.19997V19.8181ZM8.98179 7.52722H13.4545C13.6727 7.52722 13.8182 7.38176 13.8182 7.16358C13.8182 6.9454 13.6727 6.79994 13.4545 6.79994H8.98179C8.76361 6.79994 8.61816 6.9454 8.61816 7.16358C8.61816 7.3454 8.76361 7.52722 8.98179 7.52722ZM8.98179 9.56358H11.3454C11.5636 9.56358 11.7091 9.41813 11.7091 9.19994C11.7091 8.98176 11.5636 8.83631 11.3454 8.83631H8.98179C8.76361 8.83631 8.61816 8.98176 8.61816 9.19994C8.61816 9.38176 8.76361 9.56358 8.98179 9.56358ZM8.98179 12.6909H13.4545C13.6727 12.6909 13.8182 12.5454 13.8182 12.3272C13.8182 12.109 13.6727 11.9636 13.4545 11.9636H8.98179C8.76361 11.9636 8.61816 12.109 8.61816 12.3272C8.61816 12.5454 8.76361 12.6909 8.98179 12.6909ZM11.3091 13.9999H8.94543C8.72725 13.9999 8.58179 14.1454 8.58179 14.3636C8.58179 14.5818 8.72725 14.7272 8.94543 14.7272H11.3091C11.5272 14.7272 11.6727 14.5818 11.6727 14.3636C11.6727 14.1818 11.5272 13.9999 11.3091 13.9999Z" fill="black"/>
</g>
</g>
<defs>
<clipPath id="clip0_588_3729">
<rect width="24" height="24" fill="white"/>
</clipPath>
<clipPath id="clip1_588_3729">
<rect width="24" height="24" fill="white"/>
</clipPath>
</defs>
</svg>
