<svg width="18" height="18" viewBox="0 0 18 18" fill="none" xmlns="http://www.w3.org/2000/svg">
<g clip-path="url(#clip0_313_762)">
<path d="M8.73798 5.43868C8.73798 5.57755 8.72919 5.71641 8.70985 5.85352C8.71688 5.80606 8.72216 5.76036 8.72919 5.7129C8.69052 5.98712 8.61845 6.2543 8.51122 6.51095L8.56395 6.38438C8.48837 6.56192 8.3952 6.73243 8.28798 6.89415C8.25985 6.93634 8.22997 6.97677 8.20184 7.0172C8.13681 7.1086 8.27919 6.92227 8.22118 6.99259C8.20712 7.01016 8.19306 7.02774 8.17723 7.04708C8.11571 7.12091 8.05067 7.19122 7.98388 7.25977C7.91532 7.32833 7.84501 7.39161 7.77118 7.45313C7.7536 7.4672 7.73602 7.48302 7.71669 7.49708C7.64638 7.55509 7.8204 7.41973 7.75009 7.47071C7.70966 7.50059 7.66923 7.52872 7.62704 7.55684C7.46356 7.66759 7.28954 7.76075 7.10848 7.83809L7.23505 7.78536C6.98016 7.89259 6.71298 7.96641 6.437 8.00333C6.48446 7.9963 6.53016 7.99102 6.57763 7.98399C6.30165 8.01915 6.02391 8.01915 5.74794 7.98399C5.7954 7.99102 5.8411 7.9963 5.88856 8.00333C5.61434 7.96466 5.34716 7.89259 5.09052 7.78536L5.21708 7.83809C5.03954 7.76251 4.86903 7.66934 4.70731 7.56212C4.66512 7.53399 4.6247 7.50411 4.58427 7.47598C4.49286 7.41095 4.67919 7.55333 4.60888 7.49532C4.5913 7.48126 4.57372 7.4672 4.55438 7.45138C4.48056 7.38985 4.41024 7.32481 4.34169 7.25802C4.27313 7.18946 4.20985 7.11915 4.14833 7.04532C4.13427 7.02774 4.11845 7.01016 4.10438 6.99083C4.04638 6.92052 4.18173 7.09454 4.13075 7.02423C4.10087 6.9838 4.07274 6.94337 4.04462 6.90118C3.93388 6.7377 3.84071 6.56368 3.76337 6.38263L3.8161 6.50919C3.70888 6.2543 3.63505 5.98712 3.59813 5.71114C3.60516 5.7586 3.61044 5.8043 3.61747 5.85177C3.58231 5.57579 3.58231 5.29806 3.61747 5.02208C3.61044 5.06954 3.60516 5.11524 3.59813 5.1627C3.6368 4.88848 3.70888 4.6213 3.8161 4.36466L3.76337 4.49122C3.83895 4.31368 3.93212 4.14317 4.03934 3.98145C4.06747 3.93927 4.09735 3.89884 4.12548 3.85841C4.19052 3.767 4.04813 3.95333 4.10614 3.88302C4.1202 3.86544 4.13427 3.84786 4.15009 3.82852C4.21161 3.7547 4.27665 3.68438 4.34345 3.61583C4.41024 3.54727 4.48231 3.48399 4.55614 3.42247C4.57372 3.40841 4.5913 3.39259 4.61063 3.37852C4.68095 3.32052 4.50692 3.45587 4.57723 3.40489C4.61766 3.37501 4.65809 3.34688 4.70028 3.31876C4.86376 3.20802 5.03778 3.11485 5.21884 3.03751L5.09227 3.09024C5.34716 2.98302 5.61434 2.90919 5.89032 2.87227C5.84286 2.8793 5.79716 2.88458 5.7497 2.89161C6.02567 2.85645 6.30341 2.85645 6.57938 2.89161C6.53192 2.88458 6.48622 2.8793 6.43876 2.87227C6.71298 2.91095 6.98016 2.98302 7.2368 3.09024L7.11024 3.03751C7.28778 3.11309 7.45829 3.20626 7.62001 3.31348C7.6622 3.34161 7.70263 3.37149 7.74305 3.39962C7.83446 3.46466 7.64813 3.32227 7.71845 3.38028C7.73602 3.39434 7.7536 3.40841 7.77294 3.42423C7.84677 3.48575 7.91708 3.55079 7.98563 3.61759C8.05419 3.68614 8.11747 3.75645 8.17899 3.83028C8.19305 3.84786 8.20887 3.86544 8.22294 3.88477C8.28095 3.95509 8.14559 3.78106 8.19657 3.85138C8.22645 3.8918 8.25458 3.93223 8.2827 3.97442C8.39345 4.1379 8.48661 4.31192 8.56395 4.49298L8.51122 4.36641C8.61845 4.6213 8.69227 4.88848 8.72919 5.16446C8.72216 5.117 8.71688 5.0713 8.70985 5.02384C8.72919 5.16095 8.73798 5.29981 8.73798 5.43868C8.73973 5.71466 8.98055 5.97833 9.26532 5.96602C9.55009 5.95372 9.79442 5.73399 9.79266 5.43868C9.78915 4.70567 9.56942 3.96212 9.14052 3.36622C8.69403 2.74571 8.09462 2.28516 7.37567 2.01973C5.98876 1.50997 4.32587 1.95997 3.39071 3.10431C2.89852 3.70723 2.60673 4.41739 2.5452 5.19434C2.4872 5.92559 2.67528 6.68497 3.05497 7.31075C3.42235 7.91544 3.9743 8.42872 4.62118 8.72227C5.3454 9.04923 6.12762 9.14415 6.90809 8.99122C8.33016 8.70997 9.51669 7.4918 9.73641 6.05567C9.76805 5.85177 9.79091 5.64786 9.79091 5.44044C9.79266 5.16446 9.54833 4.90079 9.26356 4.91309C8.9788 4.92364 8.73973 5.14161 8.73798 5.43868ZM14.9659 6.41427C14.9659 6.51973 14.9589 6.6252 14.9448 6.73067C14.9518 6.68321 14.9571 6.63751 14.9641 6.59005C14.936 6.79395 14.8815 6.99083 14.8007 7.18067L14.8534 7.05411C14.7972 7.18595 14.7304 7.31075 14.6495 7.43028C14.6284 7.46192 14.6056 7.49356 14.5827 7.5252C14.5704 7.54102 14.5335 7.59024 14.5897 7.51817C14.6477 7.44259 14.602 7.50059 14.588 7.51817C14.5423 7.57442 14.4931 7.62716 14.4421 7.67989C14.3929 7.72911 14.3419 7.77481 14.2891 7.81876C14.2839 7.82403 14.2522 7.85743 14.2452 7.85567C14.2452 7.85567 14.3559 7.77306 14.2979 7.81524C14.2663 7.83809 14.2364 7.86095 14.2048 7.88204C14.0835 7.96466 13.9534 8.03321 13.8198 8.09122L13.9464 8.03848C13.7565 8.11759 13.5597 8.17208 13.3558 8.20196C13.4032 8.19493 13.4489 8.18966 13.4964 8.18263C13.2854 8.21075 13.0745 8.21075 12.8636 8.18263C12.911 8.18966 12.9567 8.19493 13.0042 8.20196C12.8003 8.17384 12.6034 8.11934 12.4136 8.03848L12.5401 8.09122C12.4083 8.03497 12.2835 7.96817 12.164 7.88731C12.1323 7.86622 12.1007 7.84337 12.069 7.82052C12.0532 7.80821 12.004 7.7713 12.0761 7.82755C12.1516 7.88555 12.0936 7.83985 12.0761 7.82579C12.0198 7.78009 11.9671 7.73087 11.9143 7.67989C11.8651 7.63067 11.8194 7.5797 11.7755 7.52696C11.7702 7.52169 11.7368 7.49005 11.7386 7.48302C11.7386 7.48302 11.8212 7.59376 11.779 7.53575C11.7561 7.50411 11.7333 7.47423 11.7122 7.44259C11.6296 7.3213 11.561 7.19122 11.503 7.05763L11.5558 7.18419C11.4766 6.99434 11.4222 6.79747 11.3923 6.59356C11.3993 6.64102 11.4046 6.68673 11.4116 6.73419C11.3835 6.52325 11.3835 6.31231 11.4116 6.10138C11.4046 6.14884 11.3993 6.19454 11.3923 6.242C11.4204 6.03809 11.4749 5.84122 11.5558 5.65138L11.503 5.77794C11.5593 5.6461 11.6261 5.5213 11.7069 5.40177C11.728 5.37013 11.7509 5.33848 11.7737 5.30684C11.786 5.29102 11.8229 5.2418 11.7667 5.31387C11.7087 5.38946 11.7544 5.33145 11.7684 5.31387C11.8141 5.25762 11.8634 5.20489 11.9143 5.15216C11.9636 5.10294 12.0145 5.05723 12.0673 5.01329C12.0725 5.00802 12.1042 4.97462 12.1112 4.97638C12.1112 4.97638 12.0005 5.05899 12.0585 5.0168C12.0901 4.99395 12.12 4.9711 12.1516 4.95001C12.2729 4.86739 12.403 4.79884 12.5366 4.74083L12.41 4.79356C12.5999 4.71446 12.7968 4.65997 13.0007 4.63009C12.9532 4.63712 12.9075 4.64239 12.86 4.64942C13.071 4.6213 13.2819 4.6213 13.4929 4.64942C13.4454 4.64239 13.3997 4.63712 13.3522 4.63009C13.5561 4.65821 13.753 4.7127 13.9429 4.79356L13.8163 4.74083C13.9481 4.79708 14.0729 4.86387 14.1925 4.94473C14.2241 4.96583 14.2557 4.98868 14.2874 5.01153C14.3032 5.02384 14.3524 5.06075 14.2804 5.0045C14.2048 4.94649 14.2628 4.9922 14.2804 5.00626C14.3366 5.05196 14.3893 5.10118 14.4421 5.15216C14.4913 5.20138 14.537 5.25235 14.5809 5.30509C14.5862 5.31036 14.6196 5.342 14.6179 5.34903C14.6179 5.34903 14.5352 5.23829 14.5774 5.2963C14.6003 5.32794 14.6231 5.35782 14.6442 5.38946C14.7268 5.51075 14.7954 5.64083 14.8534 5.77442L14.8007 5.64786C14.8798 5.8377 14.9343 6.03458 14.9641 6.23848C14.9571 6.19102 14.9518 6.14532 14.9448 6.09786C14.9589 6.20333 14.9659 6.3088 14.9659 6.41427C14.9677 6.69024 15.2067 6.95391 15.4933 6.94161C15.778 6.9293 16.0224 6.70958 16.0206 6.41427C16.0171 5.84649 15.8483 5.2629 15.5161 4.79884C15.161 4.30489 14.6899 3.94102 14.1169 3.73184C13.0429 3.33809 11.7403 3.68966 11.0161 4.57384C10.6259 5.0502 10.3974 5.60216 10.3464 6.21739C10.2989 6.78692 10.4466 7.38458 10.7419 7.87501C11.0266 8.34786 11.4591 8.75391 11.9653 8.98067C12.5419 9.24083 13.1571 9.31641 13.7776 9.19161C14.878 8.97013 15.8061 8.01915 15.9766 6.90645C16.0013 6.74298 16.0206 6.5795 16.0224 6.41427C16.0241 6.13829 15.778 5.87462 15.495 5.88692C15.2067 5.89923 14.9677 6.11895 14.9659 6.41427ZM10.9423 13.667V14.335C10.9423 14.5635 10.9616 14.8025 10.9352 15.0311C10.9423 14.9836 10.9475 14.9379 10.9546 14.8904C10.9458 14.9537 10.93 15.0135 10.9054 15.0715L10.9581 14.9449C10.9388 14.9871 10.9159 15.0275 10.8931 15.0662C10.8526 15.1365 10.9704 14.9818 10.9282 15.024C10.9124 15.0399 10.8983 15.0592 10.8825 15.075C10.8684 15.0891 10.8544 15.1014 10.8403 15.1137C10.777 15.1734 10.9511 15.0434 10.8737 15.0856C10.8333 15.1084 10.7946 15.1313 10.7524 15.1506L10.879 15.0979C10.8192 15.1207 10.7612 15.1365 10.6979 15.1471C10.7454 15.14 10.7911 15.1348 10.8386 15.1277C10.7331 15.14 10.6241 15.1348 10.5169 15.1348H2.6911C2.32723 15.1348 1.96512 15.1383 1.60126 15.1348C1.5661 15.1348 1.52919 15.133 1.49403 15.1277C1.54149 15.1348 1.5872 15.14 1.63466 15.1471C1.57137 15.1383 1.51161 15.1225 1.4536 15.0979L1.58016 15.1506C1.53798 15.1313 1.49755 15.1084 1.45887 15.0856C1.38856 15.0451 1.54325 15.1629 1.50106 15.1207C1.48524 15.1049 1.46591 15.0908 1.45009 15.075C1.43602 15.0609 1.42372 15.0469 1.41141 15.0328C1.35165 14.9695 1.48173 15.1436 1.43954 15.0662C1.41669 15.0258 1.39384 14.9871 1.3745 14.9449L1.42723 15.0715C1.40438 15.0117 1.38856 14.952 1.37802 14.8904C1.38505 14.9379 1.39032 14.9836 1.39735 15.0311C1.37098 14.8307 1.38856 14.6215 1.38856 14.4211V13.6986C1.38856 13.5316 1.39735 13.3664 1.41845 13.2012C1.41141 13.2486 1.40614 13.2943 1.39911 13.3418C1.4413 13.0272 1.52391 12.7213 1.64696 12.4295L1.59423 12.5561C1.68212 12.3504 1.78934 12.1518 1.91415 11.9654C1.94403 11.9215 1.97567 11.8775 2.00731 11.8336C2.08466 11.7299 1.94052 11.9162 1.99501 11.8494C2.01434 11.8248 2.03368 11.802 2.05302 11.7774C2.12157 11.6947 2.19364 11.6156 2.27098 11.54C2.34657 11.4645 2.42567 11.3924 2.50829 11.3221C2.53114 11.3027 2.55575 11.2834 2.58036 11.2641C2.65243 11.2061 2.4661 11.3484 2.55575 11.2834C2.60321 11.25 2.64891 11.2149 2.69637 11.1832C2.8827 11.0584 3.07958 10.9512 3.287 10.8633L3.16044 10.916C3.45223 10.793 3.75809 10.7104 4.07274 10.6682C4.02528 10.6752 3.97958 10.6805 3.93212 10.6875C4.16415 10.6576 4.39442 10.6576 4.62645 10.6576H7.59188C7.8661 10.6576 8.14032 10.6541 8.41454 10.6893C8.36708 10.6822 8.32138 10.677 8.27391 10.6699C8.58329 10.7139 8.88387 10.7965 9.17216 10.916L9.04559 10.8633C9.26532 10.9565 9.4745 11.0707 9.66962 11.2061C9.71708 11.2377 9.76102 11.2729 9.80673 11.3063C9.65907 11.199 9.80673 11.308 9.84364 11.3379C9.92626 11.4082 10.0071 11.482 10.0827 11.5611C10.1583 11.6385 10.2321 11.7211 10.3007 11.8055C10.3165 11.8248 10.3341 11.8459 10.3499 11.867C10.3323 11.8459 10.3165 11.8231 10.2989 11.802L10.3306 11.8441C10.3622 11.8863 10.3921 11.9303 10.4202 11.9725C10.5415 12.1553 10.647 12.3504 10.7331 12.5525L10.6804 12.426C10.8016 12.716 10.886 13.0201 10.9282 13.333C10.9212 13.2856 10.9159 13.2399 10.9089 13.1924C10.9317 13.3506 10.9423 13.5088 10.9423 13.667C10.944 13.943 11.1849 14.2066 11.4696 14.1943C11.7544 14.182 11.9987 13.9623 11.997 13.667C11.9952 13.2117 11.9231 12.7494 11.7667 12.3205C11.6032 11.8723 11.3765 11.475 11.0811 11.1006C10.5186 10.3887 9.67489 9.8754 8.7872 9.69259C8.35829 9.6047 7.93466 9.60118 7.50048 9.60118H4.70555C4.27138 9.60118 3.84071 9.617 3.41532 9.72071C1.88954 10.0951 0.64325 11.4082 0.397156 12.9674C0.316297 13.4754 0.333875 13.9852 0.333875 14.4984C0.333875 14.6672 0.323328 14.8395 0.337391 15.0082C0.383094 15.5461 0.757508 16.0488 1.30595 16.1578C1.50106 16.1965 1.68915 16.1912 1.88427 16.1912H10.7296C11.0724 16.1895 11.4204 16.0541 11.6524 15.7992C11.8563 15.576 11.9671 15.3088 11.9934 15.0082C11.9987 14.9484 11.997 14.8887 11.997 14.8272V13.667C11.997 13.391 11.7544 13.1274 11.4696 13.1397C11.1849 13.152 10.9423 13.3699 10.9423 13.667Z" fill="#999999"/>
<path d="M16.6112 12.7424V13.3541C16.6112 13.5597 16.6253 13.7724 16.6077 13.9781C16.6147 13.9306 16.62 13.8849 16.6271 13.8375C16.6218 13.8761 16.613 13.9131 16.5989 13.95L16.6517 13.8234C16.6429 13.8445 16.6306 13.8638 16.6218 13.8849C16.5831 13.964 16.7167 13.7812 16.6411 13.8586C16.569 13.9306 16.7237 13.8146 16.678 13.8322C16.6534 13.841 16.6323 13.8586 16.6077 13.8691L16.7343 13.8164C16.6974 13.8304 16.6605 13.8392 16.6218 13.8445C16.6692 13.8375 16.7149 13.8322 16.7624 13.8252C16.5796 13.841 16.3915 13.8287 16.2087 13.8287H11.4696L11.997 14.356C11.997 14.0062 12.0146 13.6511 11.9794 13.3031C11.9073 12.5894 11.67 11.8933 11.2429 11.3115C10.9827 10.9564 10.6892 10.6629 10.3411 10.3957C10.3763 10.6717 10.4114 10.9476 10.4483 11.2236C10.4765 11.199 10.5046 11.1761 10.5327 11.1533C10.6118 11.0865 10.429 11.2271 10.5134 11.1691C10.5661 11.1322 10.6189 11.0953 10.6733 11.0601C10.7841 10.9916 10.9001 10.9318 11.0196 10.8808L10.8931 10.9336C11.0952 10.8492 11.3062 10.7912 11.5224 10.7595C11.4749 10.7666 11.4292 10.7719 11.3817 10.7789C11.5698 10.7543 11.7562 10.7543 11.946 10.7543H14.3595C14.5616 10.7543 14.762 10.7508 14.9642 10.7771C14.9167 10.7701 14.871 10.7648 14.8235 10.7578C15.0433 10.7894 15.256 10.8474 15.4616 10.9318L15.3351 10.8791C15.481 10.9424 15.6216 11.0162 15.7534 11.1041C15.7851 11.1252 15.8167 11.148 15.8483 11.1709C15.9239 11.2254 15.8149 11.1375 15.8062 11.1375C15.8149 11.1375 15.8431 11.1674 15.8501 11.1744C15.9116 11.2254 15.9714 11.2799 16.0294 11.3361C16.0839 11.3906 16.1349 11.4469 16.1841 11.5066C16.1964 11.5207 16.2087 11.5365 16.221 11.5506C16.2597 11.598 16.1401 11.4416 16.1876 11.5084C16.2105 11.54 16.2333 11.5699 16.2544 11.6015C16.3458 11.7369 16.4231 11.8793 16.4864 12.0287L16.4337 11.9021C16.5198 12.106 16.5778 12.3205 16.6077 12.5402C16.6007 12.4927 16.5954 12.447 16.5884 12.3996C16.6042 12.5138 16.6112 12.6281 16.6112 12.7424C16.613 13.0183 16.8521 13.282 17.1386 13.2697C17.4233 13.2574 17.6677 13.0377 17.6659 12.7424C17.6624 11.8775 17.2862 11.0127 16.6218 10.4502C16.047 9.9615 15.3386 9.69958 14.5827 9.69958H11.9372C11.7034 9.69958 11.4749 9.70837 11.2429 9.74353C10.6663 9.82791 10.139 10.1004 9.70127 10.4801C9.57647 10.589 9.53604 10.7666 9.55537 10.923C9.57998 11.0988 9.66963 11.2025 9.80674 11.308C9.79795 11.301 9.7083 11.2289 9.7628 11.2746C9.77686 11.2851 9.78916 11.2957 9.80323 11.308C9.83311 11.3326 9.86299 11.359 9.89287 11.3836C9.94912 11.4328 10.0019 11.4838 10.0546 11.5347C10.1073 11.5875 10.1583 11.6402 10.2075 11.6965C10.2532 11.7492 10.2972 11.823 10.3499 11.867C10.3411 11.8599 10.2743 11.765 10.3147 11.823L10.3464 11.8652C10.3675 11.8933 10.3868 11.9215 10.4062 11.9513C10.4483 12.0129 10.487 12.0761 10.5257 12.1394C10.6048 12.273 10.6733 12.4101 10.7331 12.5525L10.6804 12.426C10.8017 12.716 10.886 13.0201 10.9282 13.333C10.9212 13.2855 10.9159 13.2398 10.9089 13.1924C10.9581 13.5756 10.9405 13.9676 10.9405 14.3543C10.9405 14.639 11.1814 14.8816 11.4679 14.8816H16.5392C16.7237 14.8816 16.8978 14.8799 17.0735 14.8043C17.4321 14.6531 17.6536 14.3156 17.6624 13.9271C17.6642 13.841 17.6624 13.7531 17.6624 13.6652V12.7388C17.6624 12.4629 17.4198 12.1992 17.1351 12.2115C16.8538 12.2273 16.6112 12.447 16.6112 12.7424Z" fill="#999999"/>
</g>
<defs>
<clipPath id="clip0_313_762">
<rect width="18" height="18" fill="white"/>
</clipPath>
</defs>
</svg>
