<svg width="24" height="24" viewBox="0 0 24 24" fill="none" xmlns="http://www.w3.org/2000/svg">
<g clip-path="url(#clip0_572_3545)">
<path d="M12 2C10.0222 2 8.08879 2.58649 6.4443 3.6853C4.79981 4.78412 3.51809 6.3459 2.76121 8.17317C2.00433 10.0004 1.8063 12.0111 2.19215 13.9509C2.578 15.8907 3.53041 17.6725 4.92894 19.0711C6.32746 20.4696 8.10929 21.422 10.0491 21.8078C11.9889 22.1937 13.9996 21.9957 15.8268 21.2388C17.6541 20.4819 19.2159 19.2002 20.3147 17.5557C21.4135 15.9112 22 13.9778 22 12C21.9983 9.34835 20.9442 6.80579 19.0692 4.93079C17.1942 3.0558 14.6517 2.00169 12 2ZM16.7182 8.42727L14.7909 14.2182C14.7469 14.3518 14.6722 14.4732 14.5727 14.5727C14.4732 14.6722 14.3518 14.7469 14.2182 14.7909L8.42728 16.7182C8.33703 16.7509 8.24142 16.7663 8.14546 16.7636C7.90395 16.7643 7.67196 16.6696 7.5 16.5C7.38053 16.3813 7.29674 16.2315 7.25817 16.0676C7.2196 15.9037 7.2278 15.7322 7.28182 15.5727L9.2091 9.78182C9.2531 9.6482 9.32784 9.52678 9.42731 9.42731C9.52678 9.32784 9.64821 9.25309 9.78182 9.20909L15.5727 7.28182C15.7323 7.22823 15.9037 7.22023 16.0675 7.25872C16.2314 7.29721 16.3813 7.38066 16.5003 7.49969C16.6193 7.61872 16.7028 7.7686 16.7413 7.93247C16.7798 8.09634 16.7718 8.2677 16.7182 8.42727Z" fill="black"/>
<path d="M14.4184 9.58185L13.3729 12.7273L11.2729 10.6273L14.4184 9.58185Z" fill="black"/>
</g>
<defs>
<clipPath id="clip0_572_3545">
<rect width="20" height="20" fill="white" transform="translate(2 2)"/>
</clipPath>
</defs>
</svg>
