<svg width="19" height="20" viewBox="0 0 19 20" fill="none" xmlns="http://www.w3.org/2000/svg">
<path d="M15.3525 11.7787C15.5875 11.7796 15.822 11.7997 16.0537 11.8387V2.17125C16.0528 1.5957 15.8237 1.04401 15.4167 0.63704C15.0097 0.230066 14.458 0.00099147 13.8825 0H2.17125C1.5957 0.00099147 1.04401 0.230066 0.637039 0.63704C0.230066 1.04401 0.00099147 1.5957 0 2.17125V14.8125C0.00099147 15.388 0.230066 15.9397 0.637039 16.3467C1.04401 16.7537 1.5957 16.9828 2.17125 16.9837H11.2162C11.0698 16.361 11.0663 15.7131 11.206 15.0888C11.3458 14.4645 11.6252 13.8799 12.0232 13.379C12.4212 12.8782 12.9276 12.474 13.5042 12.1968C14.0808 11.9196 14.7127 11.7767 15.3525 11.7787ZM3.1575 2.77875H12.8925C13.0417 2.77875 13.1848 2.83801 13.2902 2.9435C13.3957 3.04899 13.455 3.19207 13.455 3.34125C13.455 3.49043 13.3957 3.63351 13.2902 3.739C13.1848 3.84449 13.0417 3.90375 12.8925 3.90375H3.1575C3.00832 3.90375 2.86524 3.84449 2.75975 3.739C2.65426 3.63351 2.595 3.49043 2.595 3.34125C2.595 3.19207 2.65426 3.04899 2.75975 2.9435C2.86524 2.83801 3.00832 2.77875 3.1575 2.77875ZM3.1575 6.21375H12.8925C13.0417 6.21375 13.1848 6.27301 13.2902 6.3785C13.3957 6.48399 13.455 6.62707 13.455 6.77625C13.455 6.92543 13.3957 7.06851 13.2902 7.174C13.1848 7.27949 13.0417 7.33875 12.8925 7.33875H3.1575C3.00832 7.33875 2.86524 7.27949 2.75975 7.174C2.65426 7.06851 2.595 6.92543 2.595 6.77625C2.595 6.62707 2.65426 6.48399 2.75975 6.3785C2.86524 6.27301 3.00832 6.21375 3.1575 6.21375ZM3.1575 9.645H12.8925C13.0417 9.645 13.1848 9.70426 13.2902 9.80975C13.3957 9.91524 13.455 10.0583 13.455 10.2075C13.455 10.3567 13.3957 10.4998 13.2902 10.6052C13.1848 10.7107 13.0417 10.77 12.8925 10.77H3.1575C3.00832 10.77 2.86524 10.7107 2.75975 10.6052C2.65426 10.4998 2.595 10.3567 2.595 10.2075C2.595 10.0583 2.65426 9.91524 2.75975 9.80975C2.86524 9.70426 3.00832 9.645 3.1575 9.645ZM10.1663 14.205H3.1575C3.00832 14.205 2.86524 14.1457 2.75975 14.0402C2.65426 13.9348 2.595 13.7917 2.595 13.6425C2.595 13.4933 2.65426 13.3502 2.75975 13.2448C2.86524 13.1393 3.00832 13.08 3.1575 13.08H10.1663C10.3154 13.08 10.4585 13.1393 10.564 13.2448C10.6695 13.3502 10.7288 13.4933 10.7288 13.6425C10.7288 13.7917 10.6695 13.9348 10.564 14.0402C10.4585 14.1457 10.3154 14.205 10.1663 14.205ZM15.3525 12.9037C14.7343 12.9041 14.1301 13.0878 13.6163 13.4316C13.1025 13.7753 12.7022 14.2637 12.466 14.835C12.2297 15.4063 12.1682 16.0348 12.2892 16.641C12.4101 17.2472 12.7082 17.804 13.1456 18.2409C13.5829 18.6777 14.1401 18.9751 14.7464 19.0953C15.3528 19.2155 15.9812 19.1533 16.5522 18.9164C17.1232 18.6794 17.6111 18.2785 17.9543 17.7643C18.2974 17.2501 18.4804 16.6457 18.48 16.0275C18.4793 15.1986 18.1495 14.4039 17.563 13.8181C16.9765 13.2323 16.1814 12.9035 15.3525 12.9037ZM16.845 16.59H15.3525C15.2033 16.59 15.0602 16.5307 14.9548 16.4252C14.8493 16.3198 14.79 16.1767 14.79 16.0275V14.3138C14.79 14.1646 14.8493 14.0215 14.9548 13.916C15.0602 13.8105 15.2033 13.7513 15.3525 13.7513C15.5017 13.7513 15.6448 13.8105 15.7502 13.916C15.8557 14.0215 15.915 14.1646 15.915 14.3138V15.465H16.845C16.9942 15.465 17.1373 15.5243 17.2427 15.6298C17.3482 15.7352 17.4075 15.8783 17.4075 16.0275C17.4075 16.1767 17.3482 16.3198 17.2427 16.4252C17.1373 16.5307 16.9942 16.59 16.845 16.59Z" fill="black"/>
</svg>
