<svg width="24" height="24" viewBox="0 0 24 24" fill="none" xmlns="http://www.w3.org/2000/svg">
<g clip-path="url(#clip0_588_3713)">
<g clip-path="url(#clip1_588_3713)">
<path d="M16.7275 14.3999L14.4002 12.8727L12.2184 16.2545C12.1093 16.4363 12.1457 16.6545 12.3275 16.7636L12.8366 17.0909C12.9821 17.1999 13.2002 17.1636 13.3093 17.0181C13.8548 16.2909 14.7639 16.0363 14.9093 15.9999C15.9639 15.8545 16.5093 15.0545 16.7275 14.3999ZM14.5457 12.1454L17.4184 13.9999L20.1093 9.89085L17.2366 8.03631L14.5457 12.1454ZM23.6002 6.25449L22.9093 5.81813L23.0911 5.52722C23.5639 4.76358 23.3821 3.7454 22.6184 3.27267L22.2548 3.01813C21.4911 2.5454 20.473 2.76358 20.0002 3.49085L17.5275 7.30904L20.6548 9.3454L22.5821 6.39994L22.9457 6.65449L21.2002 9.3454C21.0184 9.63631 21.3457 9.99994 21.5275 9.89085C21.6366 9.89085 21.7457 9.81813 21.8184 9.70903L23.7821 6.72722C23.8184 6.58176 23.7457 6.32722 23.6002 6.25449ZM5.05478 4.98176H12.4002C12.5821 4.98176 12.7639 4.83631 12.7639 4.61813V2.32722C12.7639 2.10904 12.5821 1.96358 12.4002 1.96358H10.4002V1.85449C10.4002 0.909035 9.6366 0.181763 8.72751 0.181763C7.78206 0.181763 7.05478 0.945399 7.05478 1.85449V1.92722H5.05478C4.8366 1.92722 4.69115 2.07267 4.69115 2.29085V4.61813C4.69115 4.83631 4.87297 4.98176 5.05478 4.98176ZM4.65479 17.309H7.20024V19.8545H4.65479V17.309ZM4.65479 6.90904H7.20024V9.45449H4.65479V6.90904ZM4.65479 12.109H7.20024V14.6545H4.65479V12.109ZM11.5639 20.9818L14.073 18.509H11.5639V20.9818Z" fill="black"/>
<path d="M10.8365 18.1455C10.8365 17.9637 11.0183 17.7819 11.2001 17.7819H12.5455C11.3819 17.2364 11.2001 16.4728 11.5637 15.8546L13.6728 12.6182C13.6365 12.691 13.5637 12.7273 13.4546 12.7273H8.98191C8.80009 12.7273 8.61827 12.5455 8.61827 12.3637C8.61827 12.1819 8.80009 12 8.98191 12H13.4546C13.5637 12 13.6365 12.0364 13.7092 12.1091L14.5455 10.8V3.16368H13.491V4.69096C13.491 5.30914 13.0183 5.78186 12.4001 5.78186H5.05463C4.43645 5.78186 3.96373 5.30914 3.96373 4.69096V3.12732H2.90918V21.491H10.8365V18.1455ZM8.98191 6.80005H13.4546C13.6728 6.80005 13.8183 6.98187 13.8183 7.16368C13.8183 7.38187 13.6728 7.52732 13.4546 7.52732H8.98191C8.80009 7.52732 8.61827 7.38187 8.61827 7.16368C8.61827 6.9455 8.76373 6.80005 8.98191 6.80005ZM8.98191 8.80005H11.3455C11.5274 8.80005 11.7092 8.98187 11.7092 9.16368C11.7092 9.38187 11.5637 9.52732 11.3455 9.52732H8.98191C8.80009 9.52732 8.61827 9.38187 8.61827 9.16368C8.61827 8.98187 8.76373 8.80005 8.98191 8.80005ZM7.92736 20.1819C7.92736 20.4 7.74554 20.5455 7.56372 20.5455H4.32736C4.10918 20.5455 3.96373 20.4 3.96373 20.1819V16.9455C3.96373 16.7273 4.10918 16.5819 4.32736 16.5819H7.56372C7.74554 16.5819 7.92736 16.7273 7.92736 16.9455V20.1819ZM7.92736 14.9819C7.92736 15.1637 7.74554 15.3455 7.56372 15.3455H4.32736C4.10918 15.3455 3.96373 15.1637 3.96373 14.9819V11.7091C3.96373 11.491 4.10918 11.3455 4.32736 11.3455H7.56372C7.74554 11.3455 7.92736 11.491 7.92736 11.7091V14.9819ZM7.92736 9.78187C7.92736 10 7.74554 10.1455 7.56372 10.1455H4.32736C4.10918 10.1455 3.96373 10 3.96373 9.78187V6.5455C3.96373 6.32732 4.10918 6.18186 4.32736 6.18186H7.56372C7.74554 6.18186 7.92736 6.32732 7.92736 6.5455V9.78187ZM8.61827 14.3637C8.61827 14.1455 8.80009 14 8.98191 14H11.3455C11.5274 14 11.7092 14.1455 11.7092 14.3637C11.7092 14.5455 11.5637 14.7273 11.3455 14.7273H8.98191C8.76373 14.7273 8.61827 14.5819 8.61827 14.3637ZM14.5819 16.8728C14.3274 16.9819 14.0728 17.1637 13.8546 17.4182C13.7455 17.5637 13.6001 17.6728 13.4183 17.7455H14.5819V16.8728ZM17.2728 6.36368V4.07277C17.2728 3.52732 16.8365 3.12732 16.3274 3.12732H15.3455V9.63641L17.2728 6.36368Z" fill="black"/>
<path d="M15.3089 16.6546V18.1455C15.3089 18.2182 15.2726 18.3273 15.1998 18.4C11.2362 22.3273 11.4908 22.1455 11.3453 22.2182C11.3089 22.2182 11.2362 22.2546 11.1998 22.2546H2.5453C2.36349 22.2546 2.18167 22.1091 2.18167 21.891V3.12732H1.19985C0.654395 3.12732 0.254395 3.56368 0.254395 4.07277V22.8364C0.254395 23.3819 0.690758 23.7819 1.19985 23.7819H16.2908C16.8362 23.7819 17.2362 23.3455 17.2362 22.8364V15.0182C16.8726 15.8546 16.1817 16.4364 15.3089 16.6546Z" fill="black"/>
</g>
</g>
<defs>
<clipPath id="clip0_588_3713">
<rect width="24" height="24" fill="white"/>
</clipPath>
<clipPath id="clip1_588_3713">
<rect width="24" height="24" fill="white"/>
</clipPath>
</defs>
</svg>
